<svg xmlns="http://www.w3.org/2000/svg" viewBox="0 0 198.91 34.79"><defs><style>.cls-1{fill:#fff;}</style></defs><g id="Layer_2" data-name="Layer 2"><g id="Layer_1-2" data-name="Layer 1"><path class="cls-1" d="M2.84,1.33,16.89,30.76,31,1.14A1.59,1.59,0,0,1,32.55,0a1,1,0,0,1,1.1,1.1,2.3,2.3,0,0,1-.23.91L18.27,33.92a1.49,1.49,0,0,1-1.42.87,1.72,1.72,0,0,1-1.47-.92L.14,1.88A1.93,1.93,0,0,1,0,1.19,1.22,1.22,0,0,1,1.28,0C2,0,2.38.37,2.84,1.33Z"/><path class="cls-1" d="M62.49,31.81a1.21,1.21,0,0,1,1,1.29,1.17,1.17,0,0,1-1,1.23h-21a.86.86,0,0,1-.92-.91V.92A.87.87,0,0,1,41.48,0H61.16a1.18,1.18,0,0,1,1.05,1.24,1.25,1.25,0,0,1-1.05,1.32H43.26v17h15.2a1.17,1.17,0,0,1,1,1.23,1.19,1.19,0,0,1-1,1.28H43.26v9.75Z"/><path class="cls-1" d="M95.59,31.45c.36,0,.59.46.59.87,0,1.23-1.55,2-3.34,2-4.17,0-6.91-8.83-12.09-11.76a24.7,24.7,0,0,1-4.48.36c-1.24,0-1.6-.45-1.6-1.19,0-1,.36-1.23,1-1.23,7.69,0,15.16-3,15.16-9.89,0-6.68-5.22-8.1-13.55-8.1H73.61V33.28s0,1-1.37,1-1.37-1-1.37-1V.92A.86.86,0,0,1,71.78,0h5.5c9.88,0,16.29,2.38,16.29,10.71,0,5.68-4.12,9.39-9.52,11.08,4.53,3.39,7,9.8,9.84,9.8A11.63,11.63,0,0,0,95.59,31.45Z"/><path class="cls-1" d="M103.51,34.33a.86.86,0,0,1-.92-.91V.92a.87.87,0,0,1,.92-.92H114c10.66,0,18.4,4.39,18.4,16.8,0,9.57-4.3,17.53-17.17,17.53Zm11.76-2.52c10.85,0,14.47-6.63,14.47-15,0-10.8-6.5-14.28-15.7-14.28h-8.7V31.81Z"/><path class="cls-1" d="M162.61,31.81a1.21,1.21,0,0,1,1,1.29,1.17,1.17,0,0,1-1,1.23h-21a.86.86,0,0,1-.92-.91V.92A.87.87,0,0,1,141.6,0h19.68a1.18,1.18,0,0,1,1.05,1.24,1.25,1.25,0,0,1-1.05,1.32h-17.9v17h15.2a1.17,1.17,0,0,1,1,1.23,1.19,1.19,0,0,1-1,1.28h-15.2v9.75Z"/><path class="cls-1" d="M173.32.82l23.07,28.29V1.05c0-.55.14-1,1.33-1s1.19.5,1.19,1.05V32.78c0,1.14-.18,1.55-.91,1.55s-.92-.41-1.33-.91L173.5,5.31v28c0,.78-.45,1-1.41,1s-1.1-.27-1.1-1V1.46c0-.73.13-1.46,1-1.46C172.31,0,172.68.05,173.32.82Z"/></g></g></svg>